<?xml version="1.0" encoding="UTF-8" standalone="no"?>
<svg
   xmlns:dc="http://purl.org/dc/elements/1.1/"
   xmlns:cc="http://creativecommons.org/ns#"
   xmlns:rdf="http://www.w3.org/1999/02/22-rdf-syntax-ns#"
   xmlns:svg="http://www.w3.org/2000/svg"
   xmlns="http://www.w3.org/2000/svg"
   xmlns:sodipodi="http://sodipodi.sourceforge.net/DTD/sodipodi-0.dtd"
   xmlns:inkscape="http://www.inkscape.org/namespaces/inkscape"
   height="512"
   viewBox="0 0 74 74"
   width="512"
   version="1.1"
   id="svg153"
   sodipodi:docname="cube.svg"
   inkscape:version="0.92.3 (2405546, 2018-03-11)">
  <metadata
     id="metadata159">
    <rdf:RDF>
      <cc:Work
         rdf:about="">
        <dc:format>image/svg+xml</dc:format>
        <dc:type
           rdf:resource="http://purl.org/dc/dcmitype/StillImage" />
      </cc:Work>
    </rdf:RDF>
  </metadata>
  <defs
     id="defs157" />
  <sodipodi:namedview
     pagecolor="#ffffff"
     bordercolor="#666666"
     borderopacity="1"
     objecttolerance="10"
     gridtolerance="10"
     guidetolerance="10"
     inkscape:pageopacity="0"
     inkscape:pageshadow="2"
     inkscape:window-width="2560"
     inkscape:window-height="1337"
     id="namedview155"
     showgrid="false"
     inkscape:zoom="1.3037281"
     inkscape:cx="46.937207"
     inkscape:cy="196.94409"
     inkscape:window-x="0"
     inkscape:window-y="55"
     inkscape:window-maximized="1"
     inkscape:current-layer="svg153" />
  <path
     style="fill:#ff0000"
     inkscape:connector-curvature="0"
     id="path2"
     d="M 47.213,6.934 37,3 26.787,6.934 37,11.007 Z" />
  <path
     style="fill:#05afd6"
     inkscape:connector-curvature="0"
     id="path4"
     d="M 57.73,10.99 47.44,15.17 H 47.43 L 46.97,14.98 37,11.01 47.21,6.93 c 4.55,1.75 5.68,2.19 10.52,4.06 z" />
  <path
     style="fill:#ffff00"
     inkscape:connector-curvature="0"
     id="path6"
     d="M 47.43,15.17 37,19.41 26.57,15.17 37,11.01 l 9.97,3.97 z" />
  <path
     style="fill:#323c6b"
     inkscape:connector-curvature="0"
     id="path8"
     d="m 37,19.91 a 0.5,0.5 0 0 1 -0.188,-0.037 l -10.43,-4.24 a 0.5,0.5 0 0 1 0,-0.928 l 10.43,-4.16 a 0.5,0.5 0 0 1 0.37,0 l 10.438,4.163 a 0.5,0.5 0 0 1 0,0.925 l -10.43,4.24 A 0.5,0.5 0 0 1 37,19.91 Z M 27.909,15.174 37,18.871 46.1,15.171 37,11.548 Z" />
  <path
     style="fill:#27ccbc"
     inkscape:connector-curvature="0"
     id="path10"
     d="M 37,11.007 26.787,6.934 16.269,10.985 26.566,15.168 Z" />
  <path
     style="fill:#323c6b"
     inkscape:connector-curvature="0"
     id="path12"
     d="m 26.565,15.668 a 0.506,0.506 0 0 1 -0.188,-0.037 l -10.3,-4.183 a 0.5,0.5 0 0 1 0.009,-0.93 L 26.607,6.467 a 0.5,0.5 0 0 1 0.365,0 l 10.213,4.073 a 0.5,0.5 0 0 1 0,0.929 l -10.434,4.163 a 0.5,0.5 0 0 1 -0.186,0.036 z M 17.628,11 26.567,14.631 35.65,11.009 26.784,7.471 Z" />
  <path
     style="fill:#ff00ff"
     inkscape:connector-curvature="0"
     id="path14"
     d="M 37,19.41 26.27,23.77 15.45,19.6 26.57,15.17 Z" />
  <path
     style="fill:#323c6b"
     inkscape:connector-curvature="0"
     id="path16"
     d="m 26.27,24.27 a 0.5,0.5 0 0 1 -0.18,-0.034 l -10.819,-4.17 a 0.5,0.5 0 0 1 0,-0.931 l 11.12,-4.43 a 0.5,0.5 0 0 1 0.373,0 l 10.43,4.24 a 0.5,0.5 0 0 1 0,0.927 l -10.73,4.36 A 0.506,0.506 0 0 1 26.27,24.27 Z m -9.45,-4.678 9.444,3.64 9.407,-3.822 -9.1,-3.7 z" />
  <path
     style="fill:#c8b7b7"
     inkscape:connector-curvature="0"
     id="path18"
     d="M 26.57,15.17 15.45,19.6 4.68,15.45 16.27,10.99 Z" />
  <path
     style="fill:#323c6b"
     inkscape:connector-curvature="0"
     id="path20"
     d="M 15.45,20.1 A 0.507,0.507 0 0 1 15.27,20.067 L 4.5,15.917 a 0.5,0.5 0 0 1 0,-0.934 l 11.59,-4.46 a 0.5,0.5 0 0 1 0.368,0 l 10.3,4.18 a 0.5,0.5 0 0 1 0,0.928 l -11.12,4.43 A 0.491,0.491 0 0 1 15.45,20.1 Z m -9.379,-4.649 9.376,3.612 9.783,-3.9 -8.966,-3.638 z" />
  <path
     style="fill:#ff0000"
     inkscape:connector-curvature="0"
     id="path22"
     d="m 58.55,19.61 c -3.44,1.33 -7.27,2.81 -10.78,4.16 L 37,19.41 47.43,15.17 h 0.01 z" />
  <path
     style="fill:#323c6b"
     inkscape:connector-curvature="0"
     id="path24"
     d="m 47.77,24.27 a 0.5,0.5 0 0 1 -0.187,-0.037 l -10.77,-4.36 a 0.5,0.5 0 0 1 0,-0.927 l 10.43,-4.24 a 0.539,0.539 0 0 1 0.385,0 l 11.109,4.44 a 0.5,0.5 0 0 1 0,0.931 c -3.44,1.33 -7.271,2.811 -10.781,4.161 A 0.507,0.507 0 0 1 47.77,24.27 Z m -9.44,-4.861 9.444,3.823 c 3.06,-1.177 6.352,-2.448 9.409,-3.63 l -9.747,-3.9 z" />
  <path
     style="fill:#27ccbc"
     inkscape:connector-curvature="0"
     id="path26"
     d="m 69.32,15.45 c 0,0 -4.81,1.86 -10.77,4.16 L 47.44,15.17 57.73,10.99 c 5.33,2.05 11.59,4.46 11.59,4.46 z" />
  <path
     style="fill:#ea6453"
     inkscape:connector-curvature="0"
     id="path28"
     d="M 47.21,6.93 43.73,8.32 C 39.63,6.75 34.19,4.65 33.45,4.37 L 37,3 c 0,0 5.8,2.23 10.21,3.93 z" />
  <path
     style="fill:#27a2db"
     inkscape:connector-curvature="0"
     id="path30"
     d="M 57.73,10.99 54.27,12.4 H 54.26 C 49.46,10.54 48.33,10.1 43.79,8.35 L 43.73,8.32 47.21,6.93 c 4.55,1.75 5.68,2.19 10.52,4.06 z" />
  <path
     style="fill:#21b3a9"
     inkscape:connector-curvature="0"
     id="path32"
     d="m 69.32,15.45 c 0,0 -1.37,0.53 -3.55,1.37 C 64.86,16.47 59.2,14.29 54.31,12.41 A 0.06,0.06 0 0 0 54.27,12.4 l 3.46,-1.41 c 5.33,2.05 11.59,4.46 11.59,4.46 z" />
  <path
     style="fill:#323c6b"
     inkscape:connector-curvature="0"
     id="path34"
     d="m 47.43,15.67 a 0.5,0.5 0 0 1 -0.19,-0.038 l -0.46,-0.19 a 0.5,0.5 0 1 1 0.381,-0.924 l 0.46,0.19 a 0.5,0.5 0 0 1 -0.19,0.962 z" />
  <path
     style="fill:#323c6b"
     inkscape:connector-curvature="0"
     id="path36"
     d="m 59.01,20.29 a 0.494,0.494 0 0 1 -0.183,-0.035 l -0.46,-0.18 a 0.5,0.5 0 1 1 0.365,-0.931 l 0.46,0.18 a 0.5,0.5 0 0 1 -0.183,0.965 z" />
  <path
     style="fill:#323c6b"
     inkscape:connector-curvature="0"
     id="path38"
     d="m 59.01,20.29 a 0.494,0.494 0 0 1 -0.183,-0.035 l -0.46,-0.18 a 0.5,0.5 0 1 1 0.365,-0.931 l 0.46,0.18 a 0.5,0.5 0 0 1 -0.183,0.965 z" />
  <path
     style="fill:#323c6b"
     inkscape:connector-curvature="0"
     id="path40"
     d="m 47.43,15.67 a 0.5,0.5 0 0 1 -0.19,-0.038 l -0.46,-0.19 a 0.5,0.5 0 1 1 0.381,-0.924 l 0.46,0.19 a 0.5,0.5 0 0 1 -0.19,0.962 z" />
  <path
     style="fill:#ffff00"
     inkscape:connector-curvature="0"
     id="path42"
     d="M 47.77,23.77 C 43.01,25.61 37,27.9 37,27.9 L 26.27,23.77 37,19.41 Z" />
  <path
     style="fill:#323c6b"
     inkscape:connector-curvature="0"
     id="path44"
     d="m 37,28.4 a 0.507,0.507 0 0 1 -0.18,-0.033 l -10.73,-4.13 a 0.5,0.5 0 0 1 -0.009,-0.93 l 10.73,-4.36 a 0.5,0.5 0 0 1 0.376,0 l 10.77,4.36 a 0.5,0.5 0 0 1 -0.007,0.93 c -4.761,1.84 -10.772,4.131 -10.772,4.131 A 0.492,0.492 0 0 1 37,28.4 Z M 27.629,23.757 37,27.364 c 0.938,-0.357 5.394,-2.057 9.409,-3.605 L 37,19.95 Z" />
  <path
     style="fill:#0000ff"
     inkscape:connector-curvature="0"
     id="path46"
     d="M 26.23,23.75 V 38.21 L 15.45,34.06 V 19.6 Z" />
  <path
     style="fill:#323c6b"
     inkscape:connector-curvature="0"
     id="path48"
     d="M 26.23,38.71 A 0.511,0.511 0 0 1 26.05,38.677 L 15.27,34.527 A 0.5,0.5 0 0 1 14.95,34.06 V 19.6 a 0.5,0.5 0 0 1 0.68,-0.467 l 10.78,4.15 a 0.5,0.5 0 0 1 0.32,0.467 v 14.46 a 0.5,0.5 0 0 1 -0.5,0.5 z m -10.28,-4.993 9.78,3.765 V 24.093 l -9.78,-3.765 z" />
  <path
     style="fill:#0000ff"
     inkscape:connector-curvature="0"
     id="path50"
     d="M 37,27.9 V 42.36 L 26.23,38.21 V 23.75 Z" />
  <path
     style="fill:#323c6b"
     inkscape:connector-curvature="0"
     id="path52"
     d="M 37,42.86 A 0.507,0.507 0 0 1 36.82,42.827 L 26.05,38.677 A 0.5,0.5 0 0 1 25.73,38.21 V 23.75 a 0.5,0.5 0 0 1 0.68,-0.467 l 10.77,4.15 A 0.5,0.5 0 0 1 37.5,27.9 V 42.36 A 0.5,0.5 0 0 1 37,42.86 Z M 26.73,37.867 36.5,41.632 V 28.243 l -9.77,-3.765 z" />
  <path
     style="fill:#ff0000"
     inkscape:connector-curvature="0"
     id="path54"
     d="M 15.451,34.058 4.676,29.907 v 14.457 l 10.775,4.15 z" />
  <path
     style="fill:#323c6b"
     inkscape:connector-curvature="0"
     id="path56"
     d="m 15.451,49.014 a 0.511,0.511 0 0 1 -0.18,-0.033 L 4.5,44.831 A 0.5,0.5 0 0 1 4.18,44.364 V 29.907 A 0.5,0.5 0 0 1 4.86,29.44 l 10.775,4.15 a 0.5,0.5 0 0 1 0.32,0.467 v 14.457 a 0.5,0.5 0 0 1 -0.5,0.5 z M 5.176,44.021 14.951,47.786 V 34.4 L 5.176,30.636 Z" />
  <path
     style="fill:#00ff00"
     inkscape:connector-curvature="0"
     id="path58"
     d="M 15.451,19.601 4.676,15.451 v 14.456 l 10.775,4.151 z" />
  <path
     style="fill:#323c6b"
     inkscape:connector-curvature="0"
     id="path60"
     d="m 15.451,34.558 a 0.511,0.511 0 0 1 -0.18,-0.033 L 4.5,30.374 A 0.5,0.5 0 0 1 4.18,29.907 V 15.451 a 0.5,0.5 0 0 1 0.68,-0.467 l 10.775,4.15 a 0.5,0.5 0 0 1 0.32,0.467 v 14.457 a 0.5,0.5 0 0 1 -0.5,0.5 z M 5.176,29.564 14.951,33.329 V 19.944 L 5.176,16.179 Z" />
  <path
     style="fill:#00ff00"
     inkscape:connector-curvature="0"
     id="path62"
     d="M 26.225,38.208 V 52.664 L 37,56.814 V 42.358 Z" />
  <path
     style="fill:#323c6b"
     inkscape:connector-curvature="0"
     id="path64"
     d="m 37,57.314 a 0.511,0.511 0 0 1 -0.18,-0.033 l -10.774,-4.15 a 0.5,0.5 0 0 1 -0.32,-0.467 V 38.208 a 0.5,0.5 0 0 1 0.68,-0.467 l 10.774,4.15 a 0.5,0.5 0 0 1 0.32,0.467 v 14.456 a 0.5,0.5 0 0 1 -0.5,0.5 z M 26.726,52.321 36.5,56.086 V 42.7 l -9.774,-3.765 z" />
  <path
     style="fill:#ffff00"
     inkscape:connector-curvature="0"
     id="path66"
     d="m 15.451,34.058 v 14.456 l 10.774,4.15 V 38.208 Z" />
  <path
     style="fill:#323c6b"
     inkscape:connector-curvature="0"
     id="path68"
     d="m 26.226,53.164 a 0.511,0.511 0 0 1 -0.18,-0.033 l -10.774,-4.15 a 0.5,0.5 0 0 1 -0.32,-0.467 V 34.058 a 0.5,0.5 0 0 1 0.68,-0.467 l 10.774,4.15 a 0.5,0.5 0 0 1 0.32,0.467 v 14.456 a 0.5,0.5 0 0 1 -0.5,0.5 z m -10.275,-4.993 9.774,3.765 V 38.551 l -9.774,-3.765 z" />
  <path
     style="fill:#ffff00"
     inkscape:connector-curvature="0"
     id="path70"
     d="M 4.676,44.364 V 58.549 L 15.451,62.7 V 48.514 Z" />
  <path
     style="fill:#323c6b"
     inkscape:connector-curvature="0"
     id="path72"
     d="m 15.451,63.2 a 0.511,0.511 0 0 1 -0.18,-0.033 L 4.5,59.016 A 0.5,0.5 0 0 1 4.18,58.549 V 44.364 a 0.5,0.5 0 0 1 0.68,-0.467 l 10.775,4.15 a 0.5,0.5 0 0 1 0.32,0.467 V 62.7 a 0.5,0.5 0 0 1 -0.5,0.5 z M 5.176,58.206 14.951,61.971 V 48.857 L 5.176,45.092 Z" />
  <path
     style="fill:#ff0000"
     inkscape:connector-curvature="0"
     id="path74"
     d="M 26.23,52.66 V 66.85 L 15.45,62.7 V 48.51 Z" />
  <path
     style="fill:#323c6b"
     inkscape:connector-curvature="0"
     id="path76"
     d="M 26.23,67.35 A 0.511,0.511 0 0 1 26.05,67.317 L 15.27,63.167 A 0.5,0.5 0 0 1 14.95,62.7 V 48.51 a 0.5,0.5 0 0 1 0.68,-0.467 l 10.78,4.15 a 0.5,0.5 0 0 1 0.32,0.467 v 14.19 a 0.5,0.5 0 0 1 -0.5,0.5 z m -10.28,-4.993 9.78,3.765 V 53 l -9.78,-3.765 z" />
  <path
     style="fill:#0000ff"
     inkscape:connector-curvature="0"
     id="path78"
     d="M 26.23,52.66 37,56.81 V 71 L 26.23,66.85" />
  <path
     style="fill:#323c6b"
     inkscape:connector-curvature="0"
     id="path80"
     d="m 37,71.5 a 0.507,0.507 0 0 1 -0.18,-0.033 l -10.77,-4.15 a 0.50030915,0.50030915 0 0 1 0.359,-0.934 L 36.5,70.271 V 57.153 L 26.051,53.127 a 0.50030915,0.50030915 0 0 1 0.359,-0.934 l 10.77,4.15 A 0.5,0.5 0 0 1 37.5,56.81 V 71 A 0.5,0.5 0 0 1 37,71.5 Z" />
  <path
     style="fill:#0000ff"
     inkscape:connector-curvature="0"
     id="path82"
     d="m 47.775,52.664 10.774,-4.15 V 34.058 l -10.774,4.15 z" />
  <path
     style="fill:#323c6b"
     inkscape:connector-curvature="0"
     id="path84"
     d="m 47.774,53.164 a 0.5,0.5 0 0 1 -0.5,-0.5 V 38.208 a 0.5,0.5 0 0 1 0.32,-0.467 l 10.774,-4.15 a 0.5,0.5 0 0 1 0.68,0.467 v 14.456 a 0.5,0.5 0 0 1 -0.32,0.467 l -10.774,4.15 a 0.511,0.511 0 0 1 -0.18,0.033 z m 0.5,-14.613 v 13.385 l 9.774,-3.765 V 34.786 Z" />
  <path
     style="fill:#ff0000"
     inkscape:connector-curvature="0"
     id="path86"
     d="m 58.549,48.514 10.775,-4.15 V 29.907 l -10.775,4.151 z" />
  <path
     style="fill:#ffff00"
     inkscape:connector-curvature="0"
     id="path88"
     d="M 58.549,19.601 V 34.058 L 69.324,29.907 V 15.451 Z" />
  <path
     style="fill:#ff00ff"
     inkscape:connector-curvature="0"
     id="path90"
     d="m 37,42.358 v 14.456 l 10.775,-4.15 V 38.208 Z" />
  <path
     style="fill:#323c6b"
     inkscape:connector-curvature="0"
     id="path92"
     d="m 37,57.314 a 0.5,0.5 0 0 1 -0.5,-0.5 V 42.358 a 0.5,0.5 0 0 1 0.32,-0.467 l 10.774,-4.15 a 0.5,0.5 0 0 1 0.68,0.467 v 14.456 a 0.5,0.5 0 0 1 -0.32,0.467 L 37.18,57.281 A 0.511,0.511 0 0 1 37,57.314 Z M 37.5,42.7 v 13.386 l 9.774,-3.765 V 38.936 Z" />
  <path
     style="fill:#27ccbc"
     inkscape:connector-curvature="0"
     id="path94"
     d="M 58.55,48.51 V 62.7 L 47.77,66.85 V 52.66 Z" />
  <path
     style="fill:#ff0000"
     inkscape:connector-curvature="0"
     id="path96"
     d="M 47.77,52.66 V 66.85 L 37,71 V 56.81 Z" />
  <path
     style="fill:#e3dbdb"
     inkscape:connector-curvature="0"
     id="path98"
     d="M 47.77,23.75 V 38.21 L 37,42.36 V 27.9 Z" />
  <path
     style="fill:#323c6b"
     inkscape:connector-curvature="0"
     id="path100"
     d="m 37,42.86 a 0.5,0.5 0 0 1 -0.5,-0.5 V 27.9 a 0.5,0.5 0 0 1 0.32,-0.467 l 10.77,-4.15 a 0.5,0.5 0 0 1 0.68,0.467 v 14.46 a 0.5,0.5 0 0 1 -0.32,0.467 l -10.77,4.15 A 0.507,0.507 0 0 1 37,42.86 Z m 0.5,-14.617 v 13.388 l 9.77,-3.765 V 24.479 Z" />
  <path
     style="fill:#00ff00"
     inkscape:connector-curvature="0"
     id="path102"
     d="M 58.55,19.6 V 34.06 L 47.77,38.21 V 23.75 Z" />
  <path
     style="fill:#323c6b"
     inkscape:connector-curvature="0"
     id="path104"
     d="m 47.77,38.71 a 0.5,0.5 0 0 1 -0.5,-0.5 V 23.75 a 0.5,0.5 0 0 1 0.32,-0.467 l 10.78,-4.15 a 0.5,0.5 0 0 1 0.68,0.467 v 14.46 a 0.5,0.5 0 0 1 -0.32,0.467 l -10.78,4.15 a 0.511,0.511 0 0 1 -0.18,0.033 z m 0.5,-14.617 v 13.389 l 9.78,-3.765 V 20.328 Z" />
  <path
     style="fill:#05afd6"
     inkscape:connector-curvature="0"
     id="path106"
     d="M 58.549,62.7 69.324,58.549 V 44.364 l -10.775,4.15 z" />
  <path
     style="fill:#21b3a9"
     inkscape:connector-curvature="0"
     id="path108"
     d="M 58.55,59.12 V 62.7 L 47.77,66.85 V 63.27 Z" />
  <path
     style="fill:#ea6453"
     inkscape:connector-curvature="0"
     id="path110"
     d="m 47.77,63.27 v 3.58 L 37,71 v -3.58 z" />
  <path
     style="fill:#27a2db"
     inkscape:connector-curvature="0"
     id="path112"
     d="m 69.32,54.97 v 3.58 L 58.55,62.7 v -3.58 z" />
  <path
     style="fill:#ea6453;opacity:1"
     inkscape:connector-curvature="0"
     id="path114"
     d="m 69.32,29.91 v 14.45 l -3.5,1.35 V 31.26 Z" />
  <path
     style="fill:#f7be56;opacity:1"
     inkscape:connector-curvature="0"
     id="path116"
     d="m 69.32,15.45 v 14.46 l -3.5,1.35 V 16.8 Z" />
  <path
     style="fill:#27a2db;opacity:1"
     inkscape:connector-curvature="0"
     id="path118"
     d="m 69.32,44.36 v 14.19 l -3.5,1.35 V 45.71 Z" />
  <path
     style="fill:#323c6b"
     d="M 37,11.507 A 0.5,0.5 0 0 1 36.814,11.471 L 26.6,7.4 A 0.5,0.5 0 0 1 26.606,6.469 L 36.82,2.533 a 0.506,0.506 0 0 1 0.359,0 L 47.393,6.467 A 0.5,0.5 0 0 1 47.4,7.4 L 37.186,11.471 A 0.5,0.5 0 0 1 37,11.507 Z M 28.157,6.942 37,10.469 45.843,6.942 37,3.536 Z"
     id="path120"
     inkscape:connector-curvature="0" />
  <path
     style="fill:#323c6b"
     d="m 47.44,15.67 a 0.545,0.545 0 0 1 -0.2,-0.038 l -0.46,-0.19 -9.964,-3.968 a 0.5,0.5 0 0 1 0,-0.929 l 10.21,-4.08 a 0.5,0.5 0 0 1 0.365,0 c 3.339,1.284 4.837,1.862 7.309,2.82 l 3.207,1.239 a 0.5,0.5 0 0 1 0.008,0.93 l -10.29,4.18 A 0.512,0.512 0 0 1 47.44,15.67 Z M 38.35,11.009 47.437,14.632 56.373,11 54.344,10.215 C 51.913,9.276 50.427,8.701 47.214,7.465 Z"
     id="path122"
     inkscape:connector-curvature="0" />
  <path
     style="fill:#323c6b"
     d="m 58.55,20.11 a 0.5,0.5 0 0 1 -0.186,-0.036 l -11.109,-4.44 a 0.5,0.5 0 0 1 0,-0.928 l 10.29,-4.18 a 0.5,0.5 0 0 1 0.368,0 l 11.59,4.46 a 0.5,0.5 0 0 1 0,0.933 l -10.771,4.16 A 0.5,0.5 0 0 1 58.55,20.11 Z m -9.771,-4.944 9.774,3.907 9.378,-3.622 -10.2,-3.923 z"
     id="path124"
     inkscape:connector-curvature="0" />
  <path
     style="fill:#323c6b"
     d="m 58.549,49.014 a 0.5,0.5 0 0 1 -0.5,-0.5 V 34.058 a 0.5,0.5 0 0 1 0.32,-0.467 l 10.775,-4.15 a 0.5,0.5 0 0 1 0.68,0.467 v 14.456 a 0.5,0.5 0 0 1 -0.32,0.467 l -10.775,4.15 a 0.511,0.511 0 0 1 -0.18,0.033 z m 0.5,-14.613 v 13.385 l 9.775,-3.765 V 30.636 Z"
     id="path126"
     inkscape:connector-curvature="0" />
  <path
     style="fill:#323c6b"
     d="m 58.549,34.558 a 0.5,0.5 0 0 1 -0.5,-0.5 V 19.6 a 0.5,0.5 0 0 1 0.32,-0.467 l 10.775,-4.15 a 0.5,0.5 0 0 1 0.68,0.467 v 14.457 a 0.5,0.5 0 0 1 -0.32,0.467 l -10.775,4.15 a 0.511,0.511 0 0 1 -0.18,0.034 z m 0.5,-14.613 v 13.384 l 9.775,-3.765 V 16.179 Z"
     id="path128"
     inkscape:connector-curvature="0" />
  <path
     style="fill:#323c6b"
     d="m 58.549,63.2 a 0.5,0.5 0 0 1 -0.5,-0.5 V 48.514 a 0.5,0.5 0 0 1 0.32,-0.467 L 69.145,43.9 a 0.5,0.5 0 0 1 0.68,0.467 v 14.182 a 0.5,0.5 0 0 1 -0.32,0.467 L 58.73,63.166 A 0.511,0.511 0 0 1 58.549,63.2 Z m 0.5,-14.342 v 13.113 l 9.775,-3.765 V 45.092 Z"
     id="path130"
     inkscape:connector-curvature="0" />
  <path
     style="fill:#323c6b"
     d="m 47.77,67.35 a 0.5,0.5 0 0 1 -0.5,-0.5 V 52.66 a 0.5,0.5 0 0 1 0.32,-0.467 l 10.78,-4.15 a 0.5,0.5 0 0 1 0.68,0.467 V 62.7 a 0.5,0.5 0 0 1 -0.32,0.467 l -10.78,4.15 A 0.511,0.511 0 0 1 47.77,67.35 Z M 48.27,53 v 13.122 l 9.78,-3.765 V 49.238 Z"
     id="path132"
     inkscape:connector-curvature="0" />
  <path
     style="fill:#323c6b"
     d="M 37,71.5 A 0.5,0.5 0 0 1 36.5,71 V 56.81 a 0.5,0.5 0 0 1 0.32,-0.467 l 10.77,-4.15 a 0.5,0.5 0 0 1 0.68,0.467 v 14.19 a 0.5,0.5 0 0 1 -0.32,0.467 l -10.77,4.15 A 0.507,0.507 0 0 1 37,71.5 Z m 0.5,-14.347 v 13.118 l 9.77,-3.765 V 53.389 Z"
     id="path134"
     inkscape:connector-curvature="0" />
  <path
     style="fill:#ffffff"
     inkscape:connector-curvature="0"
     id="path146"
     d="m 32.190122,64.942811 a 0.642,0.642 0 0 1 -0.229,-0.042 l -0.609,-0.23 a 0.65,0.65 0 1 1 0.459,-1.216 l 0.609,0.23 a 0.65,0.65 0 0 1 -0.229,1.258 z" />
  <path
     style="fill:#ffffff"
     inkscape:connector-curvature="0"
     id="path148"
     d="m 28.899122,63.697811 a 0.642,0.642 0 0 1 -0.229,-0.042 l -9.078,-3.432 a 0.65,0.65 0 1 1 0.459,-1.216 l 9.078,3.432 a 0.65,0.65 0 0 1 -0.229,1.258 z" />
  <path
     style="fill:#323c6b"
     inkscape:connector-curvature="0"
     id="path150"
     d="m 26.23,67.35 a 0.5,0.5 0 0 1 -0.5,-0.5 V 52.66 a 0.5,0.5 0 0 1 1,0 v 14.19 a 0.5,0.5 0 0 1 -0.5,0.5 z" />
</svg>
